<svg width="79" height="79" viewBox="0 0 79 79" fill="none" xmlns="http://www.w3.org/2000/svg">
<g clip-path="url(#clip0_2657_28)">
<path d="M74.7469 13.0043H52.1407C51.2899 9.35819 48.9807 7.41358 45.9422 6.92742C43.2684 1.70127 38.6499 0.607422 33.1807 0.607422C30.993 0.607422 23.5792 0.972037 19.3253 6.44127C16.1653 10.452 15.3146 16.1643 16.8946 23.5782C15.0715 24.5505 14.9499 26.6167 15.5576 28.5613C15.9222 30.3843 17.1376 35.9751 20.1761 36.5828C20.5407 37.9197 21.2699 40.3505 22.8499 42.7813V48.8582L7.53609 54.8136C3.40378 56.3936 0.608398 60.4043 0.608398 64.9013V77.1767C0.608398 77.9059 1.09455 78.392 1.82378 78.392H66.2392C66.9684 78.392 67.4546 77.9059 67.4546 77.1767V69.8843H74.7469C76.813 69.8843 78.393 68.3043 78.393 66.2382V16.6505C78.393 14.5843 76.6915 13.0043 74.7469 13.0043ZM21.7561 34.3951C20.4192 33.5443 20.4192 36.4613 17.9884 27.9536C17.2592 25.4013 18.5961 25.6443 18.4746 25.6443C19.2038 25.6443 19.8115 24.9151 19.6899 24.1859C17.8669 17.0151 18.4746 11.5459 21.2699 8.02127C24.1869 4.37511 29.6561 2.79511 33.9099 3.03819H34.0315C41.6884 2.67358 43.9976 8.26435 43.9976 8.38588C44.6053 9.96588 46.6715 8.26435 48.7376 11.0597C49.953 12.7613 50.9253 16.4074 48.4946 23.9428C48.373 24.3074 48.4946 24.672 48.6161 25.0367C49.3453 26.009 50.9253 24.7936 50.0746 27.832C50.0746 27.9536 48.7376 34.152 47.1576 34.152C47.0361 34.152 46.6715 34.0305 46.1853 34.2736C45.9422 34.3951 45.6992 34.7597 45.6992 35.1243C45.5776 35.6105 43.3899 46.9136 33.9099 47.2782C24.4299 46.9136 22.2422 35.6105 22.1207 35.1243C22.2422 34.8813 21.9992 34.6382 21.7561 34.3951ZM39.0145 75.9613H29.1699L32.6946 65.6305C33.0592 64.5367 32.0869 64.2936 29.6561 60.8905L34.153 59.6751L38.5284 60.8905C34.5176 67.4536 34.0315 60.769 39.0145 75.9613ZM23.5792 51.1674L31.4792 57.852L23.9438 59.9182L20.7838 52.2613L23.5792 51.1674ZM36.5838 57.852L44.3622 51.0459L47.0361 52.1397L43.7546 59.9182L36.5838 57.852ZM42.9038 45.9413V49.2228L34.0315 56.8797L25.1592 49.4659V45.9413C30.1422 50.9243 37.5561 51.289 42.9038 45.9413ZM3.03917 64.9013C3.03917 61.4982 5.22686 58.3382 8.38686 57.1228L18.4746 53.2336L22.1207 61.8628C22.3638 62.349 22.7284 62.592 23.2146 62.592H23.5792L27.1038 61.6197L30.1422 65.509L26.4961 75.9613H3.03917V64.9013ZM65.0238 75.9613H41.5669L37.9207 65.509L40.9592 61.6197L44.1192 62.4705H44.4838C44.9699 62.4705 45.4561 62.2274 45.5776 61.7413L49.2238 52.9905L59.5546 57.0013C62.7146 58.2167 64.9022 61.3767 64.9022 64.7797V75.9613H65.0238ZM75.9622 66.2382C75.9622 66.9674 75.4761 67.4536 74.7469 67.4536H67.4546V64.7797C67.4546 60.4043 64.6592 56.272 60.5269 54.692L45.3346 48.8582V42.7813C46.793 40.3505 47.6438 37.9197 48.0084 36.5828C50.9253 35.9751 52.2622 30.3843 52.6269 28.5613C53.2346 26.6167 53.113 24.672 51.4115 23.5782C52.3838 20.4182 52.7484 17.6228 52.7484 15.3136H74.9899C75.7192 15.3136 76.2053 15.7997 76.2053 16.529V66.2382H75.9622Z" fill="#161616"/>
<path d="M71.1013 21.0259H66.2398C65.5106 21.0259 65.0244 21.512 65.0244 22.2413C65.0244 22.9705 65.5106 23.4566 66.2398 23.4566H71.1013C71.8306 23.4566 72.3167 22.9705 72.3167 22.2413C72.3167 21.512 71.8306 21.0259 71.1013 21.0259Z" fill="#161616"/>
<path d="M71.1013 30.749H66.2398C65.5106 30.749 65.0244 31.2352 65.0244 31.9644C65.0244 32.6936 65.5106 33.1798 66.2398 33.1798H71.1013C71.8306 33.1798 72.3167 32.6936 72.3167 31.9644C72.3167 31.2352 71.8306 30.749 71.1013 30.749Z" fill="#161616"/>
<path d="M71.1013 40.4722H66.2398C65.5106 40.4722 65.0244 40.9583 65.0244 41.6876C65.0244 42.4168 65.5106 42.9029 66.2398 42.9029H71.1013C71.8306 42.9029 72.3167 42.4168 72.3167 41.6876C72.3167 40.9583 71.8306 40.4722 71.1013 40.4722Z" fill="#161616"/>
<path d="M60.1631 21.0259H57.7324C56.1524 21.0259 56.1524 23.4566 57.7324 23.4566H60.1631C60.8924 23.4566 61.3785 22.9705 61.3785 22.2413C61.3785 21.512 60.8924 21.0259 60.1631 21.0259Z" fill="#161616"/>
<path d="M60.1623 30.7491C59.0684 30.8707 56.5161 30.1414 56.5161 31.9645C56.5161 32.6937 57.0023 33.1799 57.7315 33.1799H60.1623C60.8915 33.1799 61.3777 32.6937 61.3777 31.9645C61.3777 31.2353 60.8915 30.7491 60.1623 30.7491Z" fill="#161616"/>
<path d="M60.1623 40.4722H57.7315C57.0023 40.4722 56.5161 40.9583 56.5161 41.6876C56.5161 42.4168 57.0023 42.9029 57.7315 42.9029H60.1623C60.8915 42.9029 61.3777 42.4168 61.3777 41.6876C61.3777 40.9583 60.8915 40.4722 60.1623 40.4722Z" fill="#161616"/>
<path d="M71.1013 50.0737H66.2398C65.5106 50.0737 65.0244 50.5599 65.0244 51.2891C65.0244 52.0183 65.5106 52.5045 66.2398 52.5045H71.1013C71.8306 52.5045 72.3167 52.0183 72.3167 51.2891C72.3167 50.5599 71.8306 50.0737 71.1013 50.0737Z" fill="#161616"/>
</g>
<defs>
<clipPath id="clip0_2657_28">
<rect width="79" height="79" fill="white"/>
</clipPath>
</defs>
</svg>
