<svg width="74" height="73" viewBox="0 0 74 73" fill="none" xmlns="http://www.w3.org/2000/svg">
<path d="M34.0318 65.2646C33.5189 65.2645 33.0175 65.4166 32.591 65.7016C32.1645 65.9865 31.8321 66.3915 31.6358 66.8654C31.4395 67.3393 31.3881 67.8607 31.4882 68.3638C31.5882 68.8668 31.8352 69.3289 32.1979 69.6916C32.5606 70.0543 33.0226 70.3014 33.5257 70.4014C34.0288 70.5015 34.5502 70.4502 35.0241 70.2539C35.498 70.0576 35.903 69.7252 36.188 69.2987C36.473 68.8722 36.6251 68.3708 36.6251 67.8579C36.6243 67.1704 36.3509 66.5112 35.8647 66.025C35.3785 65.5388 34.7194 65.2654 34.0318 65.2646ZM34.0318 68.7402C33.8573 68.7402 33.6867 68.6885 33.5415 68.5915C33.3964 68.4946 33.2833 68.3568 33.2165 68.1955C33.1497 68.0343 33.1322 67.8568 33.1662 67.6857C33.2003 67.5145 33.2843 67.3572 33.4077 67.2338C33.5312 67.1104 33.6884 67.0264 33.8596 66.9923C34.0308 66.9583 34.2082 66.9758 34.3695 67.0426C34.5307 67.1094 34.6685 67.2225 34.7655 67.3676C34.8624 67.5128 34.9141 67.6834 34.9141 67.8579C34.9137 68.0918 34.8206 68.3159 34.6552 68.4813C34.4898 68.6466 34.2657 68.7397 34.0318 68.7402ZM29.3968 3.59725C29.3968 3.37036 29.4869 3.15277 29.6473 2.99234C29.8078 2.83191 30.0254 2.74178 30.2522 2.74178H35.0409C35.2678 2.74178 35.4853 2.83191 35.6458 2.99234C35.8062 3.15277 35.8963 3.37036 35.8963 3.59725C35.8963 3.82413 35.8062 4.04172 35.6458 4.20215C35.4853 4.36259 35.2678 4.45271 35.0409 4.45271H30.2522C30.0254 4.45271 29.8078 4.36259 29.6473 4.20215C29.4869 4.04172 29.3968 3.82413 29.3968 3.59725ZM36.9534 3.59725C36.9534 3.42813 37.0035 3.26281 37.0975 3.12217C37.1914 2.98153 37.3249 2.87188 37.4811 2.80707C37.6373 2.74227 37.8092 2.72522 37.9751 2.75808C38.141 2.79094 38.2934 2.87223 38.4131 2.99169C38.5328 3.11114 38.6145 3.2634 38.6477 3.42922C38.6809 3.59504 38.6642 3.76699 38.5998 3.92334C38.5353 4.07969 38.4259 4.21342 38.2855 4.30764C38.1451 4.40186 37.9799 4.45235 37.8107 4.45271H37.8089C37.5821 4.4526 37.3646 4.36242 37.2043 4.202C37.0439 4.04158 36.9538 3.82406 36.9538 3.59725H36.9534ZM69.9764 34.4C70.1789 34.3695 70.3639 34.2674 70.4976 34.1122C70.6312 33.957 70.7048 33.7589 70.7048 33.5541V27.7906C70.7048 27.5857 70.6313 27.3876 70.4976 27.2324C70.3639 27.0771 70.179 26.975 69.9764 26.9446L65.3939 26.2563C65.1916 25.6528 64.9479 25.064 64.6645 24.4941L67.4185 20.7672C67.5403 20.6024 67.5988 20.3995 67.5836 20.1952C67.5683 19.9909 67.4802 19.7988 67.3354 19.654L63.2599 15.5788C63.1151 15.4339 62.9231 15.3458 62.7188 15.3306C62.5145 15.3153 62.3115 15.3738 62.1467 15.4955L58.4234 18.2464C57.8521 17.9618 57.2619 17.7169 56.6569 17.5136L55.9695 12.9368C55.9391 12.7342 55.8369 12.5492 55.6817 12.4156C55.5264 12.2819 55.3283 12.2084 55.1234 12.2084H54.6417V4.0736C54.6406 2.99345 54.2109 1.95786 53.4471 1.19414C52.6833 0.43041 51.6476 0.000943631 50.5675 0L17.4961 0C16.416 0.00105686 15.3805 0.430573 14.6167 1.19429C13.853 1.958 13.4234 2.99353 13.4223 4.0736V31.2403C13.2877 31.2971 13.17 31.3874 13.0803 31.5027C12.9906 31.618 12.932 31.7543 12.91 31.8987L12.4388 35.0354C12.0901 35.1584 11.7484 35.3002 11.4151 35.4603L8.86296 33.5744C8.69819 33.4527 8.4952 33.3941 8.2909 33.4094C8.08661 33.4246 7.89457 33.5127 7.74971 33.6576L4.82686 36.5804C4.68196 36.7253 4.59387 36.9174 4.57862 37.1217C4.56337 37.326 4.62195 37.529 4.74373 37.6938L6.63132 40.2487C6.47238 40.581 6.33164 40.9217 6.20972 41.2692L3.0673 41.741C2.86471 41.7715 2.67977 41.8736 2.54609 42.0288C2.41241 42.184 2.33888 42.3821 2.33887 42.5869V46.7204C2.33888 46.9253 2.41241 47.1233 2.54609 47.2786C2.67977 47.4338 2.86471 47.5359 3.0673 47.5663L6.21357 48.039C6.33569 48.3846 6.47633 48.7233 6.63489 49.0537L4.74345 51.6133C4.62169 51.7781 4.56312 51.9811 4.5784 52.1854C4.59368 52.3898 4.6818 52.5818 4.82671 52.7267L7.74956 55.6495C7.89443 55.7944 8.08647 55.8824 8.29076 55.8977C8.49506 55.913 8.69804 55.8544 8.86281 55.7326L11.4249 53.8395C11.7546 53.9972 12.0925 54.1371 12.4372 54.2585L12.9103 57.4095C12.9323 57.5541 12.9911 57.6905 13.0809 57.8058C13.1708 57.9212 13.2888 58.0115 13.4236 58.0681V68.927C13.4248 70.0067 13.8543 71.0419 14.6177 71.8055C15.3812 72.569 16.4163 72.9986 17.4961 73H50.5675C51.6475 72.9989 52.683 72.5694 53.4467 71.8057C54.2105 71.0419 54.64 70.0064 54.6411 68.9264V49.1366H55.1224C55.3273 49.1366 55.5254 49.0631 55.6807 48.9294C55.8359 48.7957 55.9381 48.6107 55.9685 48.4081L56.6584 43.8131C57.2577 43.6118 57.8425 43.3696 58.4087 43.0882L62.1458 45.8496C62.3106 45.9713 62.5136 46.0299 62.7179 46.0146C62.9222 45.9994 63.1142 45.9113 63.2591 45.7664L67.3345 41.6898C67.4793 41.545 67.5674 41.353 67.5826 41.1487C67.5979 40.9445 67.5394 40.7415 67.4177 40.5767L64.6589 36.8436C64.9416 36.2762 65.1849 35.69 65.3873 35.0892L69.9764 34.4ZM17.4961 1.71094H50.5675C51.1939 1.71165 51.7944 1.96081 52.2373 2.40374C52.6803 2.84667 52.9294 3.4472 52.9301 4.0736V12.2083H51.5517V6.46791C51.5513 6.20712 51.4475 5.95713 51.2631 5.77273C51.0787 5.58832 50.8287 5.48454 50.5679 5.48413H17.4961C17.2353 5.48454 16.9853 5.58832 16.8009 5.77273C16.6165 5.95713 16.5127 6.20712 16.5123 6.46791V31.1701H15.1338V4.0736C15.1345 3.44728 15.3836 2.84681 15.8265 2.40389C16.2693 1.96097 16.8697 1.71177 17.4961 1.71094ZM37.0643 20.7669L39.8181 24.4938C39.5346 25.0637 39.2907 25.6524 39.0882 26.2559L34.5049 26.9443C34.3024 26.9747 34.1174 27.0768 33.9838 27.2321C33.8502 27.3873 33.7766 27.5854 33.7766 27.7902V33.5536C33.7766 33.7585 33.8501 33.9566 33.9838 34.1118C34.1174 34.2671 34.3023 34.3692 34.5049 34.3997L39.0942 35.0889C39.2964 35.6895 39.5398 36.2755 39.8225 36.8426L37.0636 40.5777C36.9419 40.7425 36.8833 40.9455 36.8986 41.1498C36.9138 41.3541 37.0019 41.5461 37.1467 41.691L41.2222 45.7662C41.3671 45.911 41.5591 45.9991 41.7634 46.0143C41.9677 46.0296 42.1707 45.971 42.3355 45.8493L46.073 43.0871C46.6391 43.3684 47.2238 43.6106 47.823 43.8118L48.5131 48.4073C48.5435 48.6099 48.6456 48.7948 48.8008 48.9285C48.9561 49.0622 49.1541 49.1357 49.359 49.1357H49.8408V62.7158H18.2226V58.0678C18.3572 58.011 18.475 57.9207 18.5647 57.8054C18.6544 57.6901 18.7131 57.5538 18.7351 57.4094L19.208 54.2592C19.5527 54.1378 19.8907 53.9979 20.2203 53.8401L22.7824 55.7332C22.9472 55.855 23.1502 55.9136 23.3545 55.8983C23.5588 55.8831 23.7508 55.7951 23.8957 55.6502L26.8185 52.7274C26.9634 52.5825 27.0515 52.3905 27.0667 52.1862C27.082 51.9819 27.0234 51.7789 26.9017 51.6141L25.0101 49.0543C25.1688 48.7238 25.3095 48.385 25.4315 48.0393L28.5777 47.5666C28.7803 47.5362 28.9652 47.4341 29.0989 47.2789C29.2325 47.1236 29.3061 46.9256 29.3061 46.7207V42.5872C29.3061 42.3824 29.2325 42.1843 29.0989 42.0291C28.9652 41.8738 28.7803 41.7717 28.5777 41.7413L25.4364 41.2695C25.3142 40.9219 25.1731 40.5811 25.0139 40.2488L26.9015 37.6942C27.0233 37.5295 27.0818 37.3265 27.0666 37.1222C27.0513 36.9179 26.9632 36.7258 26.8184 36.581L23.8955 33.6581C23.7507 33.5133 23.5586 33.4253 23.3543 33.41C23.15 33.3948 22.947 33.4534 22.7823 33.5751L20.2301 35.4607C19.8968 35.3007 19.555 35.1588 19.2063 35.0359L18.7358 31.8991C18.7138 31.7546 18.655 31.6182 18.5651 31.5028C18.4753 31.3875 18.3573 31.2972 18.2225 31.2406V7.19478H49.8406V12.2083H49.3593C49.1544 12.2082 48.9563 12.2817 48.801 12.4154C48.6458 12.5491 48.5436 12.7341 48.5132 12.9367L47.826 17.5134C47.221 17.7167 46.6307 17.9615 46.0595 18.2462L42.336 15.4944C42.1713 15.3727 41.9683 15.3141 41.764 15.3293C41.5597 15.3446 41.3676 15.4327 41.2228 15.5775L37.1473 19.653C37.0023 19.7979 36.9141 19.9901 36.8989 20.1945C36.8837 20.399 36.9424 20.6021 37.0643 20.7669ZM11.7543 52.0862C11.6111 52.0077 11.4483 51.9718 11.2853 51.9828C11.1223 51.9938 10.9659 52.0513 10.8345 52.1484L8.43836 53.9189L6.55733 52.0379L8.32644 49.6436C8.42359 49.5121 8.48103 49.3555 8.49195 49.1923C8.50286 49.0292 8.4668 48.8664 8.38803 48.7231C8.09327 48.1864 7.85777 47.6192 7.68569 47.0315C7.63989 46.8748 7.55022 46.7345 7.42726 46.6272C7.3043 46.5198 7.15319 46.4498 6.99176 46.4256L4.0498 45.9836V43.3235L6.98791 42.8825C7.14956 42.8583 7.30089 42.7882 7.42397 42.6806C7.54705 42.5731 7.63673 42.4325 7.68241 42.2756C7.85403 41.6861 8.08949 41.1172 8.38461 40.5789C8.46317 40.4356 8.49908 40.2729 8.48809 40.1099C8.4771 39.9469 8.41967 39.7905 8.32259 39.6591L6.55747 37.2699L8.4385 35.3889L10.8253 37.1524C10.9567 37.2496 11.1133 37.3071 11.2765 37.318C11.4396 37.329 11.6025 37.2929 11.7457 37.2142C12.2849 36.9179 12.8548 36.6815 13.4454 36.5093C13.6023 36.4635 13.7428 36.3738 13.8503 36.2508C13.9579 36.1277 14.0279 35.9764 14.0521 35.8148L14.4925 32.8814H17.1527L17.5932 35.8148C17.6174 35.9764 17.6874 36.1277 17.795 36.2508C17.9025 36.3739 18.043 36.4636 18.2 36.5093C18.7906 36.6815 19.3605 36.9179 19.8996 37.2142C20.0429 37.2929 20.2058 37.329 20.3689 37.318C20.5321 37.3071 20.6886 37.2496 20.8201 37.1524L23.2066 35.3892L25.0878 37.2699L23.3227 39.6585C23.2256 39.7899 23.1681 39.9464 23.1572 40.1093C23.1462 40.2723 23.1821 40.4351 23.2606 40.5783C23.5559 41.1169 23.7914 41.686 23.9631 42.2757C24.0088 42.4327 24.0984 42.5732 24.2215 42.6808C24.3445 42.7884 24.4958 42.8585 24.6575 42.8828L27.5946 43.3238V45.9842L24.6529 46.4261C24.4915 46.4504 24.3404 46.5203 24.2175 46.6276C24.0945 46.7349 24.0048 46.8752 23.959 47.0318C23.7868 47.6197 23.5512 48.187 23.2564 48.7239C23.1776 48.8672 23.1416 49.03 23.1525 49.1931C23.1634 49.3562 23.2208 49.5128 23.318 49.6443L25.0871 52.038L23.2065 53.9191L20.8097 52.1487C20.6784 52.0516 20.522 51.9941 20.359 51.9831C20.1961 51.972 20.0333 52.0079 19.8901 52.0864C19.354 52.3802 18.7876 52.6148 18.2008 52.7861C18.044 52.8319 17.9035 52.9215 17.7961 53.0445C17.6886 53.1676 17.6186 53.3188 17.5943 53.4803L17.1523 56.4266H14.4922L14.0502 53.4802C14.026 53.3187 13.956 53.1675 13.8486 53.0445C13.7412 52.9215 13.6008 52.8318 13.444 52.786C12.8571 52.6146 12.2905 52.3799 11.7543 52.0862ZM52.9309 68.9264C52.9301 69.5529 52.6809 70.1536 52.2378 70.5965C51.7947 71.0395 51.194 71.2885 50.5675 71.2891H17.4961C16.8696 71.2884 16.2691 71.0392 15.8261 70.5963C15.3831 70.1534 15.134 69.5528 15.1333 68.9264V58.1375H16.5117V63.4426C16.5121 63.7034 16.6159 63.9533 16.8003 64.1377C16.9847 64.3222 17.2347 64.4259 17.4955 64.4264H50.5675C50.8283 64.4259 51.0783 64.3222 51.2627 64.1377C51.4471 63.9533 51.5509 63.7034 51.5513 63.4426V49.136H52.9297L52.9309 68.9264ZM62.9654 37.4298L65.6046 41.0015L62.5709 44.0354L58.996 41.3939C58.8646 41.2968 58.7082 41.2394 58.5452 41.2284C58.3823 41.2174 58.2196 41.2533 58.0764 41.3318C57.3072 41.7532 56.4945 42.0897 55.6525 42.3354C55.4957 42.3812 55.3552 42.4708 55.2478 42.5939C55.1403 42.7169 55.0703 42.8681 55.046 43.0297L54.386 47.425H50.0953L49.4353 43.0294C49.411 42.8678 49.341 42.7166 49.2336 42.5936C49.1261 42.4706 48.9857 42.3809 48.8289 42.3352C47.987 42.0894 47.1743 41.7529 46.4051 41.3315C46.2618 41.253 46.0991 41.2171 45.9362 41.2281C45.7732 41.2391 45.6168 41.2965 45.4854 41.3936L41.9113 44.035L38.8778 41.0012L41.5172 37.4292C41.6143 37.2977 41.6718 37.1411 41.6827 36.978C41.6937 36.8149 41.6576 36.6521 41.5789 36.5088C41.156 35.7389 40.8182 34.9251 40.5715 34.082C40.5256 33.9253 40.4359 33.785 40.313 33.6777C40.19 33.5704 40.0388 33.5004 39.8774 33.4762L35.4881 32.8171V28.5267L39.8723 27.8685C40.0339 27.8442 40.1852 27.7741 40.3083 27.6665C40.4313 27.5589 40.521 27.4183 40.5666 27.2614C40.8127 26.4157 41.1505 25.5994 41.5741 24.8271C41.6526 24.6839 41.6886 24.5212 41.6776 24.3582C41.6666 24.1952 41.6091 24.0387 41.5121 23.9074L38.8781 20.3429L41.9113 17.309L45.473 19.9407C45.6045 20.0378 45.7611 20.0953 45.9242 20.1062C46.0873 20.1172 46.2501 20.0811 46.3934 20.0024C47.1668 19.5775 47.9844 19.2383 48.8315 18.991C48.9883 18.9453 49.1288 18.8556 49.2363 18.7326C49.3438 18.6096 49.4138 18.4583 49.4381 18.2968L50.0954 13.9196H54.3869L55.0443 18.2968C55.0686 18.4583 55.1386 18.6095 55.2461 18.7326C55.3535 18.8556 55.494 18.9453 55.6508 18.991C56.4979 19.2383 57.3155 19.5775 58.0889 20.0024C58.2322 20.0812 58.3951 20.1172 58.5582 20.1063C58.7213 20.0953 58.8779 20.0379 59.0094 19.9407L62.5709 17.309L65.6045 20.3428L62.9708 23.9072C62.8737 24.0386 62.8163 24.195 62.8053 24.358C62.7943 24.5209 62.8302 24.6836 62.9088 24.8268C63.3323 25.5993 63.6701 26.4157 63.9164 27.2615C63.962 27.4185 64.0517 27.5591 64.1747 27.6666C64.2978 27.7742 64.4491 27.8443 64.6107 27.8686L68.9943 28.5269V32.8172L64.6047 33.4773C64.4433 33.5016 64.2922 33.5715 64.1693 33.6788C64.0463 33.7861 63.9566 33.9264 63.9108 34.083C63.664 34.9262 63.3261 35.7401 62.9031 36.5101C62.8245 36.6533 62.7885 36.816 62.7994 36.9789C62.8103 37.1419 62.8677 37.2983 62.9647 37.4298H62.9654ZM52.2411 22.9428C50.7123 22.9428 49.218 23.3961 47.9469 24.2454C46.6758 25.0947 45.6851 26.3018 45.1 27.7141C44.515 29.1265 44.3619 30.6806 44.6601 32.1799C44.9583 33.6793 45.6945 35.0565 46.7754 36.1375C47.8564 37.2185 49.2336 37.9546 50.733 38.2529C52.2323 38.5511 53.7864 38.3981 55.1988 37.8131C56.6111 37.2281 57.8183 36.2374 58.6676 34.9663C59.5169 33.6952 59.9702 32.2008 59.9702 30.6721C59.9679 28.6229 59.1529 26.6583 57.7039 25.2093C56.2549 23.7602 54.2903 22.9452 52.2411 22.9428ZM52.2411 36.6903C51.0507 36.6904 49.8871 36.3374 48.8974 35.6761C47.9077 35.0148 47.1362 34.0749 46.6807 32.9752C46.2252 31.8755 46.106 30.6653 46.3382 29.4979C46.5704 28.3304 47.1436 27.258 47.9853 26.4164C48.827 25.5747 49.8994 25.0015 51.0668 24.7692C52.2343 24.537 53.4444 24.6562 54.5441 25.1118C55.6438 25.5673 56.5838 26.3387 57.2451 27.3284C57.9064 28.3182 58.2593 29.4818 58.2593 30.6721C58.2574 32.2677 57.6228 33.7974 56.4945 34.9256C55.3663 36.0538 53.8366 36.6885 52.2411 36.6903ZM21.6082 44.6538C21.6081 43.5096 21.2688 42.3911 20.6331 41.4398C19.9974 40.4884 19.0939 39.747 18.0368 39.3091C16.9797 38.8713 15.8165 38.7567 14.6943 38.98C13.5722 39.2032 12.5414 39.7542 11.7323 40.5633C10.9233 41.3723 10.3723 42.4031 10.1491 43.5253C9.92588 44.6475 10.0405 45.8107 10.4783 46.8678C10.9162 47.9249 11.6577 48.8284 12.609 49.4641C13.5604 50.0997 14.6789 50.439 15.8231 50.439C17.3568 50.4373 18.8273 49.8272 19.9119 48.7426C20.9964 47.6581 21.6065 46.1876 21.6082 44.6538ZM11.749 44.6538C11.7491 43.848 11.988 43.0603 12.4357 42.3903C12.8834 41.7203 13.5197 41.1981 14.2642 40.8898C15.0087 40.5815 15.8279 40.5008 16.6182 40.658C17.4085 40.8153 18.1344 41.2033 18.7042 41.7731C19.2739 42.3429 19.6619 43.0689 19.8191 43.8592C19.9763 44.6495 19.8956 45.4687 19.5872 46.2131C19.2788 46.9576 18.7566 47.5939 18.0866 48.0415C17.4166 48.4892 16.6288 48.7281 15.8231 48.7281C14.7428 48.727 13.7071 48.2974 12.9432 47.5335C12.1793 46.7697 11.7496 45.734 11.7485 44.6538H11.749Z" fill="#161616"/>
</svg>
