<svg width="86" height="86" viewBox="0 0 86 86" fill="none" xmlns="http://www.w3.org/2000/svg">
<g clip-path="url(#clip0_2657_29)">
<path d="M64.861 24.9143L9.72049 28.9943C7.39747 29.1661 5.4043 30.6114 4.51846 32.7658C3.63272 34.9204 4.03312 37.3497 5.56361 39.1057L18.9077 54.417L23.2904 74.2486C23.793 76.5232 25.5086 78.289 27.7678 78.8573C30.0313 79.4266 32.3766 78.678 33.8927 76.9152L69.946 34.9952C71.5875 33.0866 71.903 30.5047 70.7692 28.257C69.6354 26.0094 67.3715 24.7285 64.861 24.9143ZM67.134 32.5768L31.0808 74.4967C30.4744 75.2015 29.5743 75.4872 28.6724 75.2603C27.7707 75.0335 27.1127 74.3562 26.9119 73.4482L22.7381 54.5618L39.1918 46.2623C40.1063 45.801 40.4736 44.6858 40.0124 43.7713C39.5511 42.8568 38.4358 42.4894 37.5213 42.9507L21.0678 51.2502L8.35975 36.669C7.74889 35.968 7.59522 35.0361 7.94873 34.1761C8.30225 33.3162 9.06658 32.762 9.99407 32.6932L65.1346 28.6131C66.6196 28.5032 67.2882 29.5913 67.4577 29.9274C67.6272 30.2635 68.1049 31.4479 67.134 32.5768Z" fill="#161616"/>
</g>
<defs>
<clipPath id="clip0_2657_29">
<rect width="63.2967" height="63.2967" fill="white" transform="translate(0 28.5068) rotate(-26.7673)"/>
</clipPath>
</defs>
</svg>
