<svg width="93" height="92" viewBox="0 0 93 92" fill="none" xmlns="http://www.w3.org/2000/svg">
<path d="M32.0086 52.4238L31.0113 51.3367C30.7598 51.0672 24.893 44.6344 21.1375 39.1719C19.673 37.0426 18.7477 35.3805 18.2984 34.0777C18.0379 33.332 17.8492 32.5684 17.7145 31.7867C17.5797 30.9781 17.5078 30.1605 17.5078 29.334C17.5078 28.6152 17.5617 27.8965 17.6695 27.1957C18.1727 23.7906 19.8887 20.6641 22.5031 18.391C25.1266 16.091 28.5047 14.8242 32.0086 14.8242C40.0047 14.8242 46.5184 21.3289 46.5184 29.334C46.5184 29.9 46.4824 30.475 46.4195 31.032C46.3926 31.2836 46.3566 31.5352 46.3117 31.7867C46.177 32.5594 45.9793 33.323 45.7277 34.0688C45.2785 35.3715 44.3441 37.0426 42.8797 39.1719C39.1242 44.6434 33.2484 51.0672 33.0059 51.3367L32.0086 52.4238ZM32.0086 17.5195C26.1957 17.5195 21.1734 21.85 20.3289 27.582C20.248 28.157 20.2031 28.741 20.2031 29.325C20.2031 29.9988 20.257 30.6727 20.3738 31.3285C20.4816 31.9574 20.6434 32.5863 20.85 33.1883C21.2184 34.2484 22.0629 35.7398 23.3656 37.6445C26.1148 41.6426 30.1578 46.3234 32.0176 48.4078C33.8684 46.3145 37.9203 41.6426 40.6695 37.6445C41.9723 35.7488 42.8258 34.2484 43.1852 33.1883C43.3918 32.5863 43.5535 31.9664 43.6613 31.3285C43.6973 31.1309 43.7242 30.9242 43.7512 30.7266C43.8051 30.2684 43.832 29.8012 43.832 29.334C43.823 22.8203 38.5223 17.5195 32.0086 17.5195Z" fill="#161616"/>
<path d="M55.9517 71.2642H31.8915L31.8735 69.9345C31.8466 67.4817 29.8341 65.4962 27.3813 65.4962C24.9286 65.4962 22.9161 67.4907 22.8892 69.9345L22.8712 71.2642H13.4017C12.0989 71.2642 10.7962 70.761 9.83486 69.8716C8.81064 68.9282 8.24463 67.6794 8.24463 66.3407V35.1649C8.24463 32.4786 10.6075 30.2056 13.4017 30.2056H20.1759L20.3646 31.3286C20.4724 31.9575 20.6341 32.5864 20.8407 33.1884C21.2091 34.2485 22.0536 35.7399 23.3563 37.6446C26.1056 41.6427 30.1485 46.3235 32.0083 48.4079C33.8591 46.3145 37.911 41.6427 40.6603 37.6446C41.963 35.7489 42.8165 34.2485 43.1759 33.1884C43.3825 32.5864 43.5442 31.9665 43.6521 31.3286L43.8407 30.2056H51.0642C53.8044 30.2056 55.9517 32.3888 55.9517 35.1649V71.2642ZM34.4341 68.5688H53.2563V35.1739C53.2563 33.8981 52.295 32.9099 51.0642 32.9099H46.0688C45.97 33.3052 45.8532 33.6915 45.7185 34.0688C45.2692 35.3716 44.3349 37.0427 42.8704 39.172C39.1149 44.6435 33.2392 51.0673 32.9966 51.3368L32.0083 52.4239L31.011 51.3368C30.7595 51.0673 24.8927 44.6345 21.1372 39.172C19.6728 37.0427 18.7474 35.3806 18.2981 34.0778C18.1634 33.6915 18.0466 33.3052 17.9478 32.9099H13.4017C12.0899 32.9099 10.9399 33.97 10.9399 35.1739V66.3497C10.9399 67.5356 12.0899 68.5778 13.4017 68.5778H20.3376C20.6161 67.1853 21.2989 65.9005 22.3321 64.8853C23.6888 63.5466 25.4856 62.8099 27.3903 62.8099C29.295 62.8099 31.0919 63.5466 32.4485 64.8853C33.4728 65.9005 34.1556 67.1763 34.4341 68.5688Z" fill="#161616"/>
<path d="M66.3643 77.1758C62.4021 77.1758 59.1768 73.9504 59.1768 69.9883C59.1768 69.9523 59.1768 69.9254 59.1768 69.8895C59.2037 67.9938 59.9584 66.2148 61.3061 64.8762C62.6627 63.5375 64.4596 62.8008 66.3643 62.8008C68.2689 62.8008 70.0658 63.5375 71.4225 64.8762C72.7701 66.2148 73.5248 67.9938 73.5518 69.8895V69.9883C73.5518 73.9504 70.3264 77.1758 66.3643 77.1758ZM66.3643 65.4961C63.9115 65.4961 61.899 67.4906 61.8721 69.9344V69.9703V69.9883C61.8721 72.468 63.8846 74.4805 66.3643 74.4805C68.8439 74.4805 70.8564 72.468 70.8564 69.9883V69.9344C70.8295 67.4906 68.817 65.4961 66.3643 65.4961Z" fill="#161616"/>
<path d="M83.8029 71.2642H70.8744L70.8564 69.9345C70.8295 67.4817 68.817 65.4962 66.3643 65.4962C63.9115 65.4962 61.899 67.4907 61.8721 69.9345L61.8541 71.2642H53.2471V36.854H71.9436L83.7939 51.6872V71.2642H83.8029ZM73.417 68.5688H81.1076V52.6306L70.6588 39.5493H55.9514V68.5688H59.3205C59.599 67.1763 60.2818 65.8915 61.315 64.8763C62.6717 63.5376 64.4686 62.8009 66.3732 62.8009C68.2779 62.8009 70.0748 63.5376 71.4314 64.8763C72.4557 65.9005 73.1385 67.1763 73.417 68.5688Z" fill="#161616"/>
<path d="M27.3906 77.1758C23.4285 77.1758 20.2031 73.9504 20.2031 69.9883C20.2031 69.9523 20.2031 69.9254 20.2031 69.8895C20.2301 67.9938 20.9848 66.2148 22.3324 64.8762C23.6891 63.5375 25.4859 62.8008 27.3906 62.8008C29.2953 62.8008 31.0922 63.5375 32.4488 64.8762C33.7965 66.2148 34.5512 67.9938 34.5781 69.8895V69.9883C34.5781 73.9504 31.3527 77.1758 27.3906 77.1758ZM27.3906 65.4961C24.9379 65.4961 22.9254 67.4906 22.8984 69.9344V69.9793V69.9883C22.8984 72.468 24.9109 74.4805 27.3906 74.4805C29.8703 74.4805 31.8828 72.468 31.8828 69.9883V69.9344C31.8559 67.4906 29.8344 65.4961 27.3906 65.4961Z" fill="#161616"/>
<path d="M62.4653 50.8516H82.4106V53.5469H62.4653V50.8516Z" fill="#161616"/>
<path d="M32.0086 33.943C29.466 33.943 27.3906 31.8766 27.3906 29.325C27.3906 26.7824 29.457 24.707 32.0086 24.707C34.5512 24.707 36.6266 26.7734 36.6266 29.325C36.6266 31.8766 34.5512 33.943 32.0086 33.943ZM32.0086 27.4113C30.9484 27.4113 30.0859 28.2738 30.0859 29.334C30.0859 30.3941 30.9484 31.2566 32.0086 31.2566C33.0687 31.2566 33.9312 30.3941 33.9312 29.334C33.9312 28.2738 33.0687 27.4113 32.0086 27.4113Z" fill="#161616"/>
</svg>
