<svg width="82" height="82" viewBox="0 0 82 82" fill="none" xmlns="http://www.w3.org/2000/svg">
<g clip-path="url(#clip0_15_240)">
<path d="M81.666 34.9711L67.9414 17.1425C67.4334 16.4831 66.5069 16.3204 65.8043 16.7671L56.9432 22.4026H45.3863C45.2367 22.4026 45.0878 22.4345 44.944 22.4764L35.9833 25.0558L26.6855 22.5127L17.6511 16.7671C16.9604 16.3279 16.0508 16.4768 15.5371 17.1137L0.356691 35.917C-0.188842 36.5927 -0.0987538 37.5793 0.559389 38.1454L8.5159 44.9928L15.6541 54.6121C13.5665 56.8362 13.6071 60.344 15.7792 62.5167C16.7421 63.4789 17.9664 64.0226 19.2257 64.1489C19.1819 64.4342 19.1594 64.7239 19.1594 65.0179C19.1594 66.5357 19.7506 67.9627 20.8235 69.0356C21.8971 70.1091 23.3241 70.7003 24.8418 70.7003C24.8625 70.7003 24.8825 70.6991 24.9025 70.6985C24.9019 70.7372 24.9 70.7754 24.9 70.8142C24.9 72.3319 25.4912 73.7589 26.5641 74.8325C27.6377 75.9054 29.0647 76.4966 30.5824 76.4966C30.8821 76.4966 31.1786 76.4722 31.4696 76.4272C31.5928 77.6909 32.1377 78.9209 33.1036 79.8868C34.211 80.9948 35.6661 81.5484 37.1213 81.5484C38.5765 81.5484 40.0317 80.9948 41.1396 79.8868L42.0086 79.0178L42.3733 79.3119C43.4719 80.376 44.8983 80.9078 46.3247 80.9078C47.7798 80.9078 49.235 80.3541 50.3423 79.2462C51.4728 78.1157 52.0265 76.6236 52.0033 75.139C53.4873 75.1616 54.98 74.6085 56.1105 73.4787C57.2397 72.3488 57.7934 70.858 57.7715 69.374C59.3174 69.3984 60.7838 68.8047 61.878 67.7105C63.0085 66.5801 63.5621 65.088 63.539 63.6034C65.0242 63.6259 66.5156 63.0729 67.6461 61.9424C69.5755 60.013 69.8239 57.0307 68.3931 54.8292L73.605 43.9136L81.4408 37.1707C82.0883 36.6133 82.1872 35.6474 81.666 34.9711ZM17.1368 20.2511L23.6332 24.382L9.50124 41.5988L3.83821 36.7247L17.1368 20.2511ZM18.0533 56.7542L20.014 54.7936C20.0734 54.7341 20.136 54.6778 20.1998 54.6253C20.5833 54.3125 21.0475 54.126 21.5392 54.0816C21.553 54.0804 21.5674 54.0804 21.5812 54.0797C21.6512 54.0741 21.7213 54.0704 21.792 54.071C22.4639 54.0804 23.0882 54.355 23.5512 54.8436C24.4596 55.8039 24.4108 57.373 23.4423 58.3414L21.5411 60.2426C20.5796 61.2042 19.0149 61.2042 18.0533 60.2426C17.0918 59.2804 17.0918 57.7158 18.0533 56.7542ZM23.0976 66.7615C22.6316 66.296 22.3751 65.6767 22.3751 65.0179C22.3751 64.3592 22.6316 63.7398 23.0976 63.2737L26.8995 59.4719C27.6277 58.7437 28.7725 58.5441 29.7035 58.9877C30.6631 59.445 31.203 60.4866 31.0623 61.5345C30.9872 62.0938 30.727 62.6206 30.3278 63.0203L26.586 66.7615C26.12 67.2276 25.5006 67.4841 24.8418 67.4841C24.1831 67.4841 23.5637 67.2276 23.0976 66.7615ZM28.8382 72.5578C28.3722 72.0923 28.1157 71.473 28.1157 70.8142C28.1157 70.1554 28.3722 69.5361 28.8382 69.07L32.6394 65.2682C33.4183 64.4899 34.6677 64.3222 35.6211 64.8772C36.492 65.3839 36.948 66.3786 36.7985 67.3696C36.7165 67.9145 36.4575 68.4269 36.0678 68.8166L32.3266 72.5578C31.8606 73.0239 31.2412 73.2804 30.5824 73.2804C29.9237 73.2804 29.3043 73.0239 28.8382 72.5578ZM35.3771 77.6127C34.4156 76.6511 34.4156 75.0865 35.3771 74.1249L37.3378 72.1643C37.3972 72.1048 37.4591 72.0492 37.523 71.9966C37.5248 71.9954 37.5261 71.9941 37.5273 71.9928C37.8464 71.7338 38.2211 71.5606 38.6209 71.4849C38.6303 71.4836 38.6397 71.4824 38.6491 71.4811C38.7179 71.4686 38.7879 71.4586 38.858 71.4523C38.8862 71.4498 38.9143 71.4498 38.9431 71.4479C39.0007 71.4448 39.0576 71.4411 39.1158 71.4417C39.787 71.4511 40.412 71.7251 40.875 72.2143C40.9319 72.2744 40.9851 72.3369 41.0339 72.4014C41.7734 73.3679 41.6739 74.8037 40.7561 75.7221L38.8649 77.6133C37.9033 78.5749 36.3387 78.5743 35.3771 77.6127ZM65.372 59.6683C64.4105 60.6305 62.8458 60.6299 61.8842 59.6683C61.8492 59.6333 61.8123 59.6008 61.7748 59.5701L51.4359 49.1224C50.8109 48.4912 49.7931 48.4862 49.1618 49.1111C48.5306 49.7355 48.5256 50.7534 49.1499 51.3846L59.6008 61.9443C59.602 61.9455 59.6033 61.9468 59.6045 61.948C60.5661 62.9096 60.5661 64.4749 59.6045 65.4365C59.1384 65.9025 58.5191 66.159 57.8603 66.159C57.2009 66.159 56.5816 65.9025 56.1161 65.4365L49.1249 58.3727C48.5005 57.7414 47.4827 57.7364 46.8514 58.3608C46.2202 58.9858 46.2152 60.0037 46.8396 60.6349L53.7238 67.5904C53.7588 67.6342 53.7963 67.6761 53.8364 67.7162C54.7979 68.6777 54.7979 70.243 53.8364 71.2046C52.8742 72.1661 51.3089 72.1655 50.3474 71.204L46.5318 67.3483C45.9068 66.7171 44.8889 66.7114 44.2577 67.3364C43.6264 67.9608 43.6214 68.9787 44.2458 69.6099L47.955 73.3573C47.9901 73.4011 48.0276 73.4436 48.0683 73.4837C49.0298 74.4452 49.0298 76.0105 48.0683 76.9721C47.1067 77.9343 45.542 77.9336 44.5805 76.9721C44.4697 76.8614 44.3396 76.7763 44.2157 76.6812C44.1106 76.6011 44.0831 76.5454 44.1357 76.4178C44.1888 76.2883 44.2683 76.1713 44.3215 76.0412C44.3803 75.896 44.4278 75.7465 44.4741 75.5964C44.7206 74.8018 44.7932 73.9473 44.6824 73.1227C44.4697 71.5405 43.5995 70.1129 42.2807 69.2095C41.5682 68.7222 40.7436 68.4025 39.889 68.2824C40.3032 66.4556 39.8058 64.4749 38.5121 63.1079C37.4473 61.9831 36.009 61.3518 34.4618 61.3306C34.4055 61.3299 34.3492 61.3299 34.2923 61.3306C34.3267 59.8541 33.7899 58.3871 32.7721 57.3116C31.7067 56.1868 30.2684 55.5556 28.7219 55.5343C28.262 55.528 27.7978 55.5768 27.3499 55.6801C27.1585 54.3481 26.4872 53.1157 25.4706 52.2342C24.4602 51.3596 23.1896 50.8741 21.8364 50.8553C20.4119 50.8347 19.0124 51.3602 17.9545 52.3155L11.739 43.9405L26.6086 25.8253L31.3476 27.1216L25.1584 38.0428C24.4102 39.3635 24.2212 40.8963 24.626 42.3589C25.0308 43.8222 25.9804 45.0397 27.3011 45.7879C27.3837 45.8348 27.4669 45.8792 27.5514 45.9218C27.5576 45.9249 27.5639 45.928 27.5707 45.9312C27.7928 46.0419 28.0212 46.137 28.2527 46.2171C29.3306 46.5906 30.4949 46.6312 31.6178 46.3209C33.0805 45.9162 34.2979 44.9659 35.0462 43.6458L39.0682 36.5483L46.2496 37.0575L65.3726 56.1799C66.3336 57.1421 66.3336 58.7068 65.372 59.6683ZM66.0383 52.298L48.0989 34.3593C48.0651 34.3248 48.0295 34.2923 47.9926 34.2617C47.7342 34.0464 47.4139 33.9163 47.076 33.8925L38.2831 33.2688C37.675 33.2269 37.0706 33.5503 36.7704 34.0802L32.2484 42.0605C31.9237 42.6336 31.3951 43.0459 30.7601 43.2217C30.1257 43.3974 29.4601 43.3149 28.8864 42.9902C28.3133 42.6655 27.9011 42.1368 27.7253 41.5018C27.5495 40.8669 27.6314 40.2012 27.9568 39.6281L33.9933 28.9746L36.4394 28.2708C36.4557 28.2658 36.4713 28.2596 36.4876 28.2545L45.6171 25.6182H56.6479L70.4188 43.1241L66.0383 52.298ZM72.5252 40.6003L59.7903 24.4027L66.2898 20.2693L78.1895 35.7262L72.5252 40.6003Z" fill="#FBAC05"/>
<path d="M49.6781 19.3831C50.0898 19.3831 50.5014 19.226 50.8155 18.912L61.7987 7.92877C62.4268 7.30066 62.4268 6.28279 61.7987 5.65468C61.1706 5.02657 60.1527 5.02657 59.5246 5.65468L48.5414 16.6379C47.9133 17.266 47.9133 18.2839 48.5414 18.912C48.8555 19.226 49.2671 19.3831 49.6781 19.3831Z" fill="#FBAC05"/>
<path d="M31.1848 18.912C31.4988 19.226 31.9105 19.3831 32.3221 19.3831C32.7332 19.3831 33.1448 19.226 33.4589 18.912C34.087 18.2839 34.087 17.266 33.4589 16.6379L22.4756 5.65468C21.8475 5.02657 20.8297 5.02657 20.2016 5.65468C19.5734 6.28279 19.5734 7.30066 20.2016 7.92877L31.1848 18.912Z" fill="#FBAC05"/>
<path d="M41.0004 19.3833C41.8881 19.3833 42.6082 18.6632 42.6082 17.7754V8.68594C42.6082 7.7982 41.8881 7.07812 41.0004 7.07812C40.1127 7.07812 39.3926 7.7982 39.3926 8.68594V17.7754C39.3926 18.6632 40.1127 19.3833 41.0004 19.3833Z" fill="#FBAC05"/>
<path d="M39.5162 2.85903C39.7714 3.47775 40.4077 3.88378 41.0789 3.84874C41.7421 3.81433 42.3245 3.3664 42.5297 2.73515C42.7356 2.09891 42.5116 1.37383 41.9786 0.968431C41.4349 0.554277 40.6767 0.531129 40.108 0.907121C39.4736 1.32628 39.2278 2.16084 39.5162 2.85903Z" fill="#FBAC05"/>
</g>
<defs>
<clipPath id="clip0_15_240">
<rect width="82" height="82" fill="white"/>
</clipPath>
</defs>
</svg>
