<svg width="85" height="84" viewBox="0 0 85 84" fill="none" xmlns="http://www.w3.org/2000/svg">
<g clip-path="url(#clip0_2696_316)">
<mask id="mask0_2696_316" style="mask-type:luminance" maskUnits="userSpaceOnUse" x="0" y="0" width="85" height="84">
<path d="M84.5 0H0.5V84H84.5V0Z" fill="white"/>
</mask>
<g mask="url(#mask0_2696_316)">
<path d="M42.5 78.7501C43.2247 78.7501 43.8124 78.1624 43.8124 77.4373C43.8124 76.7126 43.2247 76.1249 42.5 76.1249C41.7752 76.1249 41.1875 76.7126 41.1875 77.4373C41.1875 78.1624 41.7752 78.7501 42.5 78.7501Z" fill="#FBAC05"/>
<path d="M60.8751 0H24.125C22.7331 0.00159619 21.3987 0.555231 20.4144 1.53945C19.4302 2.52367 18.8766 3.8581 18.875 5.25V15.3591C18.875 15.6727 18.9873 15.976 19.1916 16.214C19.396 16.452 19.6788 16.609 19.9888 16.6565L25.4821 17.4977C25.6027 17.5119 25.7173 17.5581 25.8141 17.6315C25.9109 17.7049 25.9863 17.8028 26.0325 17.9152L28.347 24.1732C28.4284 24.3929 28.567 24.5869 28.7485 24.7349C28.9301 24.883 29.1479 24.9799 29.3794 25.0154L36.2478 26.067C36.3683 26.0814 36.4829 26.1277 36.5794 26.2012C36.6762 26.2746 36.7515 26.3726 36.7974 26.4849L39.1109 32.7416C39.1924 32.9614 39.3311 33.1553 39.5125 33.3033C39.694 33.4514 39.9119 33.5482 40.1436 33.5838L47.0104 34.6349C47.1309 34.6492 47.2455 34.6954 47.3423 34.7688C47.4391 34.8419 47.5144 34.9399 47.5609 35.052L49.8736 41.3089C49.9548 41.5285 50.0934 41.7227 50.2748 41.8707C50.4566 42.019 50.6742 42.1158 50.9059 42.1511L57.7755 43.2035C57.8957 43.2182 58.0103 43.2644 58.1068 43.3374C58.2036 43.4108 58.2792 43.5082 58.3257 43.6203L60.6568 49.9207C60.7355 50.1339 60.8685 50.3229 61.0421 50.4693C61.2161 50.6158 61.4247 50.7144 61.6482 50.756C62.601 50.9324 63.5531 51.1432 64.5114 51.2859C64.7035 51.3268 64.9027 51.3249 65.0941 51.28C65.2855 51.235 65.4648 51.1485 65.619 51.0264C65.773 50.9043 65.8982 50.7497 65.986 50.5736C66.0734 50.3975 66.1209 50.2042 66.1249 50.0075V5.25C66.1234 3.8581 65.5697 2.52367 64.5854 1.53945C63.6012 0.555231 62.2668 0.00159619 60.8751 0ZM45.8219 2.625L43.5283 4.84755C43.2488 5.10383 42.8838 5.24656 42.5047 5.24775C42.1256 5.24894 41.7596 5.10848 41.4786 4.85395L39.1781 2.625H45.8219ZM63.5 48.4296L62.8598 48.3109L60.7873 42.7095C60.5784 42.158 60.2259 41.6724 59.7662 41.303C59.3065 40.9339 58.7566 40.6941 58.173 40.6085L52.0676 39.6736L50.0231 34.1418C49.8142 33.59 49.4617 33.1041 49.0017 32.7347C48.5421 32.365 47.9918 32.1252 47.4082 32.0399L41.3049 31.1059L39.2599 25.5748C39.0513 25.023 38.6988 24.5369 38.2391 24.1672C37.7794 23.7974 37.2292 23.5575 36.6453 23.4722L30.5411 22.5374L28.4951 17.0055C28.2864 16.4535 27.9337 15.9674 27.4738 15.5976C27.0138 15.2279 26.4633 14.988 25.8793 14.9028L21.5 14.2321V5.25C21.5008 4.55405 21.7776 3.88683 22.2697 3.39472C22.7618 2.90261 23.429 2.62579 24.125 2.625H35.4059L39.6587 6.74579C40.4306 7.46754 41.448 7.86852 42.5047 7.86733C43.5614 7.86612 44.5778 7.46285 45.3479 6.73936L49.5941 2.625H60.8751C61.5708 2.62579 62.2381 2.90261 62.7303 3.39472C63.2224 3.88683 63.4991 4.55405 63.5 5.25V48.4296Z" fill="#FBAC05"/>
<path d="M65.052 54.062L60.1394 53.1511C60.0235 53.1333 59.9142 53.0855 59.8224 53.0131C59.7303 52.9406 59.6585 52.8457 59.6138 52.7376L57.2977 46.4776C57.2165 46.2578 57.0779 46.0639 56.8965 45.9158C56.715 45.7678 56.4971 45.671 56.2657 45.6354L49.3958 44.5834C49.2753 44.569 49.161 44.5228 49.0642 44.4491C48.9677 44.3757 48.8924 44.2777 48.8465 44.1656L46.5332 37.909C46.452 37.6891 46.3134 37.4952 46.132 37.3472C45.9502 37.1989 45.7326 37.1021 45.5009 37.0668L38.6332 36.0157C38.5126 36.0013 38.3984 35.9551 38.3015 35.8817C38.2051 35.808 38.1295 35.7103 38.0833 35.5982L35.7706 29.3416C35.6894 29.1218 35.5508 28.9278 35.369 28.7797C35.1876 28.6315 34.9697 28.5347 34.7383 28.4992L27.8693 27.4475C27.7487 27.4332 27.6342 27.3869 27.5376 27.3135C27.441 27.24 27.3657 27.142 27.3197 27.0297L25.0049 20.7716C24.9236 20.5519 24.7849 20.358 24.6034 20.2099C24.4219 20.0619 24.204 19.9651 23.9725 19.9295L20.3861 19.3806C20.1991 19.352 20.0082 19.3641 19.8263 19.4161C19.6445 19.4682 19.476 19.559 19.3325 19.6822C19.189 19.8054 19.0738 19.9582 18.9948 20.1301C18.9159 20.302 18.875 20.4889 18.875 20.6781V78.7502C18.8766 80.1419 19.4302 81.4763 20.4144 82.4605C21.3987 83.4448 22.7331 83.9984 24.125 84H60.8751C62.2668 83.9984 63.6012 83.4448 64.5854 82.4605C65.5697 81.4763 66.1234 80.1419 66.1249 78.7502V55.3523C66.1249 55.0456 66.0178 54.7486 65.8217 54.5132C65.6256 54.2774 65.3533 54.1179 65.052 54.062ZM63.5 78.7502C63.4991 79.4459 63.2224 80.1132 62.7303 80.6053C62.2381 81.0975 61.5708 81.3741 60.8751 81.3751H24.125C23.429 81.3741 22.7618 81.0975 22.2697 80.6053C21.7776 80.1132 21.5008 79.4459 21.5 78.7502V22.2069L22.8109 22.4074L24.8575 27.9397C25.0659 28.4917 25.4183 28.9778 25.878 29.3475C26.3378 29.7173 26.8881 29.9572 27.4719 30.0424L33.5766 30.9771L35.6214 36.5082C35.8299 37.0599 36.1825 37.5461 36.6422 37.9159C37.1021 38.2853 37.6523 38.5254 38.2363 38.6107L44.3392 39.5446L46.384 45.0749C46.5926 45.627 46.9448 46.1132 47.4045 46.4829C47.8644 46.853 48.415 47.0931 48.9986 47.1783L55.1044 48.1133L57.1519 53.6479C57.3552 54.1819 57.6927 54.6546 58.1324 55.0197C58.5721 55.3847 59.0986 55.6302 59.661 55.732L63.5 56.4436V78.7502Z" fill="#FBAC05"/>
<path d="M72.6877 51.4302H70.0628C69.7146 51.4302 69.3808 51.5685 69.1347 51.8146C68.8883 52.0606 68.75 52.3945 68.75 52.7426C68.75 53.0908 68.8883 53.4246 69.1347 53.6707C69.3808 53.9168 69.7146 54.0551 70.0628 54.0551H72.6877C73.0359 54.0551 73.3697 53.9168 73.6158 53.6707C73.8618 53.4246 74.0002 53.0908 74.0002 52.7426C74.0002 52.3945 73.8618 52.0606 73.6158 51.8146C73.3697 51.5685 73.0359 51.4302 72.6877 51.4302Z" fill="#FBAC05"/>
<path d="M70.9529 48.651L72.8486 46.902C72.9754 46.7852 73.0779 46.6447 73.15 46.4882C73.2224 46.3318 73.263 46.1625 73.2699 45.9905C73.2771 45.8181 73.2499 45.6464 73.1903 45.4846C73.1309 45.3229 73.0401 45.1745 72.9233 45.0477C72.8065 44.921 72.6657 44.8185 72.5092 44.7464C72.3531 44.674 72.1838 44.6334 72.0115 44.6265C71.8394 44.6193 71.6677 44.6465 71.5059 44.7061C71.3441 44.7655 71.1955 44.8563 71.069 44.9731L69.1733 46.7221C69.0424 46.8364 68.9366 46.976 68.8616 47.1328C68.7867 47.2892 68.7442 47.4597 68.7373 47.633C68.7305 47.8066 68.7589 47.9799 68.821 48.142C68.8832 48.3041 68.9775 48.4521 69.0986 48.5764C69.2148 48.7041 69.3553 48.8071 69.5118 48.8802C69.6682 48.953 69.8378 48.9942 70.0101 49.0011C70.1828 49.0082 70.3549 48.9808 70.5166 48.9208C70.6787 48.8605 70.8267 48.769 70.9529 48.651Z" fill="#FBAC05"/>
<path d="M70.9526 56.3486C70.6968 56.1132 70.358 55.9892 70.0105 56.0033C69.6632 56.0176 69.3357 56.1691 69.0999 56.4245C68.8641 56.6803 68.7392 57.0188 68.753 57.366C68.7664 57.7136 68.9172 58.0414 69.1723 58.2775L71.0681 60.0268C71.3254 60.2598 71.6639 60.3822 72.0106 60.3685C72.3575 60.3544 72.6847 60.2051 72.9227 59.9525C73.1588 59.6968 73.2837 59.3577 73.2696 59.0098C73.2556 58.6619 73.1041 58.334 72.8484 58.098L70.9526 56.3486Z" fill="#FBAC05"/>
<path d="M14.9375 16.6489H12.3125C11.9644 16.6489 11.6306 16.7872 11.3844 17.0334C11.1383 17.2795 11 17.6133 11 17.9614C11 18.3095 11.1383 18.6434 11.3844 18.8895C11.6306 19.1356 11.9644 19.2739 12.3125 19.2739H14.9375C15.2856 19.2739 15.6194 19.1356 15.8656 18.8895C16.1117 18.6434 16.25 18.3095 16.25 17.9614C16.25 17.6133 16.1117 17.2795 15.8656 17.0334C15.6194 16.7872 15.2856 16.6489 14.9375 16.6489Z" fill="#FBAC05"/>
<path d="M14.0486 13.8699C14.3045 14.105 14.6433 14.2289 14.9905 14.2146C15.3378 14.2003 15.6652 14.0487 15.9009 13.7933C16.1365 13.5378 16.2613 13.1993 16.2476 12.852C16.2341 12.5048 16.0832 12.177 15.8283 11.9408L13.9326 10.1919C13.8059 10.075 13.6575 9.98429 13.4958 9.92481C13.334 9.86529 13.1622 9.83825 12.99 9.84518C12.8178 9.85211 12.6486 9.89289 12.4922 9.96518C12.3358 10.0375 12.1951 10.1399 12.0783 10.2666C11.9614 10.3932 11.8706 10.5417 11.8112 10.7034C11.7517 10.8651 11.7246 11.037 11.7315 11.2092C11.7385 11.3814 11.7792 11.5505 11.8516 11.7069C11.9239 11.8634 12.0262 12.004 12.1529 12.1209L14.0486 13.8699Z" fill="#FBAC05"/>
<path d="M14.047 21.5674L12.1513 23.3167C12.0241 23.4335 11.9213 23.5742 11.8486 23.7307C11.7759 23.8873 11.7348 24.0567 11.7277 24.2292C11.7206 24.4017 11.7475 24.5739 11.8071 24.736C11.8666 24.898 11.9575 25.0467 12.0746 25.1736C12.1916 25.3004 12.3326 25.403 12.4894 25.4753C12.6462 25.5476 12.8157 25.5882 12.9881 25.5949C13.1607 25.6016 13.3328 25.5742 13.4947 25.5143C13.6566 25.4544 13.8051 25.3631 13.9317 25.2457L15.8273 23.4964C16.0823 23.2602 16.2332 22.9324 16.2468 22.585C16.2605 22.2375 16.1357 21.8989 15.8999 21.6435C15.6641 21.388 15.3366 21.2364 14.9892 21.2222C14.6418 21.2079 14.303 21.3321 14.047 21.5674Z" fill="#FBAC05"/>
</g>
</g>
<defs>
<clipPath id="clip0_2696_316">
<rect width="84" height="84" fill="white" transform="translate(0.5)"/>
</clipPath>
</defs>
</svg>
