<svg width="89" height="89" viewBox="0 0 89 89" fill="none" xmlns="http://www.w3.org/2000/svg">
<path d="M70.7002 10.8052H70.3802V10.4882C70.3802 7.04494 67.577 4.24146 64.1338 4.24146H18.3014C14.8582 4.24146 12.0547 7.04494 12.0547 10.4882V71.9424C12.0547 75.3857 14.8582 78.1894 18.3014 78.1894H18.6212V78.5145C18.6212 81.9578 21.422 84.7584 24.8651 84.7584H70.7002C74.1434 84.7584 76.9441 81.9578 76.9441 78.5145V17.0491C76.9441 13.6059 74.1434 10.8052 70.7002 10.8052ZM14.6969 71.9424V10.4882C14.6969 8.49955 16.3128 6.88366 18.3014 6.88366H64.1338C66.1221 6.88366 67.738 8.49955 67.738 10.4882V71.9424C67.738 73.9313 66.1221 75.5472 64.1338 75.5472H18.3014C16.3128 75.5472 14.6969 73.9313 14.6969 71.9424ZM74.3019 78.5145C74.3019 80.5003 72.686 82.1167 70.7002 82.1167H24.8651C22.8793 82.1167 21.2634 80.5003 21.2634 78.5145V78.1894H64.1338C67.577 78.1894 70.3802 75.3857 70.3802 71.9424V13.4474H70.7002C72.686 13.4474 74.3019 15.0633 74.3019 17.0491V78.5145Z" fill="#FBAC05"/>
<path d="M60.9823 42.6282H30.9422C30.2135 42.6282 29.6211 43.2206 29.6211 43.9491C29.6211 44.678 30.2135 45.2702 30.9422 45.2702H60.9823C61.7112 45.2702 62.3034 44.678 62.3034 43.9491C62.3034 43.2206 61.7112 42.6282 60.9823 42.6282Z" fill="#FBAC05"/>
<path d="M60.9823 52.8604H30.9422C30.2135 52.8604 29.6211 53.453 29.6211 54.1815C29.6211 54.9104 30.2135 55.5026 30.9422 55.5026H60.9823C61.7112 55.5026 62.3034 54.9104 62.3034 54.1815C62.3034 53.453 61.7112 52.8604 60.9823 52.8604Z" fill="#FBAC05"/>
<path d="M60.9823 63.0953H30.9422C30.2135 63.0953 29.6211 63.6879 29.6211 64.4164C29.6211 65.1449 30.2135 65.7376 30.9422 65.7376H60.9823C61.7112 65.7376 62.3034 65.1449 62.3034 64.4164C62.3034 63.6879 61.7112 63.0953 60.9823 63.0953Z" fill="#FBAC05"/>
<path d="M44.6941 22.3141H55.1765C55.9055 22.3141 56.4976 21.7217 56.4976 20.993C56.4976 20.2643 55.9055 19.6719 55.1765 19.6719H44.6941C43.9656 19.6719 43.373 20.2643 43.373 20.993C43.373 21.7217 43.9656 22.3141 44.6941 22.3141Z" fill="#FBAC05"/>
<path d="M62.5193 27.9238H44.6941C43.9656 27.9238 43.373 28.5163 43.373 29.2449C43.373 29.9736 43.9656 30.566 44.6941 30.566H62.5193C63.2477 30.566 63.8404 29.9736 63.8404 29.2449C63.8404 28.5163 63.2508 27.9238 62.5193 27.9238Z" fill="#FBAC05"/>
<path d="M33.1342 9.45068H25.1492C24.4205 9.45068 23.8281 10.0431 23.8281 10.7717C23.8281 11.5005 24.4205 12.0956 25.1492 12.0956H33.1342C33.8629 12.0956 34.4553 11.5032 34.4553 10.7745C34.4553 10.0459 33.8629 9.45068 33.1342 9.45068Z" fill="#FBAC05"/>
<path d="M20.8703 9.45068H18.993C18.2643 9.45068 17.6719 10.0431 17.6719 10.7717C17.6719 11.5005 18.2643 12.0929 18.993 12.0929H20.8731C21.6018 12.0929 22.1942 11.5005 22.1942 10.7717C22.1942 10.0431 21.6018 9.45068 20.8703 9.45068Z" fill="#FBAC05"/>
<path d="M25.145 41.5436L23.1619 43.5518L22.3136 42.7034C21.7963 42.1861 20.962 42.1861 20.4446 42.7034C19.9273 43.2207 19.9273 44.055 20.4446 44.5725L22.233 46.3607C22.4805 46.6082 22.817 46.7471 23.1675 46.7471H23.1703C23.5207 46.7471 23.86 46.6056 24.1048 46.3551L27.0223 43.4015C27.5368 42.8814 27.5313 42.047 27.0111 41.5325C26.4939 41.0207 25.6595 41.0263 25.145 41.5436Z" fill="#FBAC05"/>
<path d="M25.145 51.7785L23.1619 53.7864L22.3136 52.9381C21.7963 52.421 20.962 52.421 20.4446 52.9381C19.9273 53.4556 19.9273 54.29 20.4446 54.8071L22.233 56.5958C22.4805 56.8432 22.817 56.9822 23.1675 56.9822H23.1703C23.5207 56.9822 23.86 56.8402 24.1048 56.5901L27.0223 53.6362C27.5368 53.1161 27.5313 52.2821 27.0111 51.7672C26.4939 51.2558 25.6595 51.261 25.145 51.7785Z" fill="#FBAC05"/>
<path d="M25.145 62.0109L23.1619 64.0162L22.3136 63.1679C21.7963 62.6504 20.962 62.6504 20.4446 63.1679C19.9273 63.685 19.9273 64.5194 20.4446 65.0369L22.233 66.8251C22.4805 67.0726 22.817 67.212 23.1675 67.212H23.1703C23.5207 67.212 23.86 67.07 24.1048 66.8195L27.0223 63.8686C27.5368 63.3485 27.5313 62.5141 27.0111 61.9996C26.4939 61.4908 25.6595 61.4934 25.145 62.0109Z" fill="#FBAC05"/>
<path d="M29.3672 14.3402C23.4237 14.3402 18.5898 19.174 18.5898 25.1175C18.5898 31.0611 23.4237 35.8949 29.3672 35.8949C35.3107 35.8949 40.1446 31.0611 40.1446 25.1175C40.1446 19.174 35.308 14.3402 29.3672 14.3402ZM29.3672 33.2527C24.881 33.2527 21.232 29.6037 21.232 25.1175C21.232 20.6314 24.881 16.9824 29.3672 16.9824C33.8533 16.9824 37.5023 20.6314 37.5023 25.1175C37.5023 29.6037 33.8506 33.2527 29.3672 33.2527Z" fill="#FBAC05"/>
<path d="M30.5522 19.388C30.1072 18.4869 28.6276 18.4869 28.1798 19.388L23.816 28.2546C23.4934 28.9082 23.7632 29.7009 24.4168 30.0235C25.0759 30.3433 25.863 30.0736 26.1856 29.4227L27.148 27.4647H31.5813L32.5436 29.4227C32.7744 29.89 33.2417 30.1598 33.7312 30.1598C33.9259 30.1598 34.1261 30.1153 34.3125 30.0235C34.966 29.7009 35.2358 28.9082 34.9132 28.2546L30.5522 19.388ZM28.4524 24.8198L29.3674 22.9619L30.2824 24.8198H28.4524Z" fill="#FBAC05"/>
</svg>
