<svg width="85" height="85" viewBox="0 0 85 85" fill="none" xmlns="http://www.w3.org/2000/svg">
<path d="M42.5008 79.6873C34.3127 79.6898 26.3526 76.9897 19.8558 72.0058C13.359 67.0219 8.68876 60.0332 6.56969 52.1241C4.45057 44.2149 5.00117 35.8273 8.13597 28.2629C11.2708 20.6986 16.8146 14.3803 23.9072 10.2885C24.3137 10.0574 24.7951 9.99648 25.2463 10.119C25.6976 10.2415 26.0822 10.5376 26.316 10.9425C26.5498 11.3475 26.6139 11.8285 26.4944 12.2806C26.3749 12.7327 26.0814 13.1191 25.678 13.3556C19.2606 17.0575 14.2444 22.7741 11.4079 29.6182C8.57146 36.4622 8.07319 44.0512 9.9905 51.2073C11.9078 58.3635 16.1335 64.6867 22.0117 69.1962C27.89 73.7054 35.0923 76.1484 42.5008 76.1459C42.9705 76.1459 43.4208 76.3325 43.753 76.6646C44.0851 76.9968 44.2717 77.4471 44.2717 77.9168C44.2717 78.3862 44.0851 78.8369 43.753 79.169C43.4208 79.5011 42.9705 79.6873 42.5008 79.6873Z" fill="#FBAC05"/>
<path d="M60.2078 74.9489C59.8181 74.9489 59.4391 74.8199 59.1298 74.5827C58.8205 74.3456 58.5982 74.0126 58.4975 73.6361C58.3963 73.2596 58.4224 72.8603 58.5717 72.5004C58.7209 72.1401 58.9847 71.8391 59.3222 71.6442C65.7399 67.9424 70.7557 62.2258 73.5922 55.3819C76.4287 48.5379 76.9271 40.9488 75.0098 33.7926C73.0926 26.6364 68.8666 20.3131 62.9884 15.8039C57.1101 11.2948 49.9079 8.85178 42.4992 8.85418C42.0298 8.85418 41.5791 8.6676 41.2472 8.33552C40.9151 8.00339 40.7285 7.55298 40.7285 7.08332C40.7285 6.61366 40.9151 6.16325 41.2472 5.83117C41.5791 5.49909 42.0298 5.3125 42.4992 5.3125C50.6874 5.31018 58.6476 8.0104 65.1445 12.9942C71.6414 17.978 76.3114 24.9667 78.4306 32.876C80.5498 40.7852 79.9991 49.1727 76.8641 56.7373C73.7295 64.3015 68.1858 70.6197 61.0931 74.7113C60.824 74.8668 60.5184 74.9489 60.2078 74.9489Z" fill="#FBAC05"/>
<path d="M60.2078 74.9489C59.8181 74.9489 59.4391 74.8199 59.1298 74.5827C58.8205 74.3456 58.5982 74.0126 58.4975 73.6361C58.3963 73.2596 58.4224 72.8603 58.5717 72.5004C58.7209 72.1401 58.9847 71.8391 59.3222 71.6442C65.7399 67.9424 70.7557 62.2258 73.5922 55.3819C76.4287 48.5379 76.9271 40.9488 75.0098 33.7926C73.0926 26.6364 68.8666 20.3131 62.9884 15.8039C57.1101 11.2948 49.9079 8.85178 42.4992 8.85418C42.0298 8.85418 41.5791 8.6676 41.2472 8.33552C40.9151 8.00339 40.7285 7.55298 40.7285 7.08332C40.7285 6.61366 40.9151 6.16325 41.2472 5.83117C41.5791 5.49909 42.0298 5.3125 42.4992 5.3125C50.6874 5.31018 58.6476 8.0104 65.1445 12.9942C71.6414 17.978 76.3114 24.9667 78.4306 32.876C80.5498 40.7852 79.9991 49.1727 76.8641 56.7373C73.7295 64.3015 68.1858 70.6197 61.0931 74.7113C60.824 74.8668 60.5184 74.9489 60.2078 74.9489Z" fill="#FBAC05"/>
<path d="M42.5008 79.6873C34.3127 79.6898 26.3526 76.9897 19.8558 72.0058C13.359 67.0219 8.68876 60.0332 6.56969 52.1241C4.45057 44.2149 5.00117 35.8273 8.13597 28.2629C11.2708 20.6986 16.8146 14.3803 23.9072 10.2885C24.3137 10.0574 24.7951 9.99648 25.2463 10.119C25.6976 10.2415 26.0822 10.5376 26.316 10.9425C26.5498 11.3475 26.6139 11.8285 26.4944 12.2806C26.3749 12.7327 26.0814 13.1191 25.678 13.3556C19.2606 17.0575 14.2444 22.7741 11.4079 29.6182C8.57146 36.4622 8.07319 44.0512 9.9905 51.2073C11.9078 58.3635 16.1335 64.6867 22.0117 69.1962C27.89 73.7054 35.0923 76.1484 42.5008 76.1459C42.9705 76.1459 43.4208 76.3325 43.753 76.6646C44.0851 76.9968 44.2717 77.4471 44.2717 77.9168C44.2717 78.3862 44.0851 78.8369 43.753 79.169C43.4208 79.5011 42.9705 79.6873 42.5008 79.6873Z" fill="#FBAC05"/>
<path d="M24.7911 23.0209C24.3214 23.0209 23.871 22.8343 23.5389 22.5022C23.2068 22.1701 23.0203 21.7197 23.0203 21.2501V13.4106L13.966 12.3853C13.4991 12.3322 13.0725 12.0959 12.7799 11.7282C12.4874 11.3606 12.3528 10.8918 12.4059 10.425C12.4589 9.95813 12.6953 9.53151 13.0629 9.2389C13.4306 8.94634 13.8993 8.81179 14.3662 8.86486L24.9912 10.0708C25.4232 10.1199 25.8221 10.3263 26.1117 10.6506C26.4014 10.9749 26.5617 11.3944 26.5619 11.8292V21.2501C26.5619 21.7197 26.3754 22.1701 26.0432 22.5022C25.7112 22.8343 25.2607 23.0209 24.7911 23.0209Z" fill="#FBAC05"/>
<path d="M70.833 76.1459C70.7658 76.1459 70.6982 76.1422 70.6311 76.1351L60.0061 74.9294C59.5744 74.8796 59.176 74.6731 58.887 74.3489C58.5975 74.0247 58.4375 73.6055 58.4375 73.1709V63.75C58.4375 63.2802 58.6237 62.83 58.9558 62.4978C59.2879 62.1657 59.7386 61.9791 60.208 61.9791C60.6778 61.9791 61.1281 62.1657 61.4602 62.4978C61.7923 62.83 61.9789 63.2802 61.9789 63.75V71.5895L71.0333 72.6149C71.484 72.6642 71.8986 72.8848 72.1913 73.231C72.4845 73.5773 72.6333 74.0226 72.6076 74.4754C72.5819 74.9277 72.3837 75.3536 72.0537 75.6641C71.7232 75.9751 71.2866 76.1476 70.833 76.1459Z" fill="#FBAC05"/>
<path d="M42.4992 65.5209C37.9463 65.5209 33.4954 64.1705 29.7097 61.6412C25.9239 59.1115 22.9733 55.5162 21.2309 51.3098C19.4885 47.1033 19.0326 42.4743 19.9209 38.0088C20.8091 33.5432 23.0016 29.4413 26.2212 26.2218C29.4407 23.0023 33.5426 20.8097 38.0082 19.9215C42.4739 19.0332 47.1025 19.4891 51.3089 21.2315C55.5154 22.9739 59.1111 25.9245 61.6404 29.7103C64.17 33.496 65.5201 37.9469 65.5201 42.5C65.513 48.6034 63.0854 54.4548 58.7699 58.7703C54.4539 63.0862 48.6026 65.5139 42.4992 65.5209ZM42.4992 23.0208C38.6467 23.0208 34.8806 24.1632 31.6773 26.3036C28.474 28.444 25.9773 31.4863 24.503 35.0456C23.0286 38.6049 22.6429 42.5216 23.3945 46.3001C24.1461 50.0787 26.0013 53.5496 28.7255 56.2738C31.4497 58.9979 34.9205 60.8534 38.6992 61.6047C42.4776 62.3564 46.3943 61.9708 49.9539 60.4964C53.5131 59.0219 56.5553 56.5254 58.6956 53.322C60.836 50.1185 61.9787 46.3524 61.9787 42.5C61.9725 37.3356 59.9184 32.3846 56.2663 28.7328C52.6146 25.0811 47.6639 23.0269 42.4992 23.0208Z" fill="#FBAC05"/>
<path d="M49.5828 51.3541C49.113 51.3541 48.6627 51.1675 48.3306 50.8354L41.2474 43.7518C40.9153 43.4201 40.7286 42.9698 40.7285 42.5V33.6458C40.7285 33.1762 40.9151 32.7257 41.2472 32.3937C41.5791 32.0616 42.0298 31.875 42.4992 31.875C42.969 31.875 43.4193 32.0616 43.7514 32.3937C44.0835 32.7257 44.2701 33.1762 44.2701 33.6458V41.7669L50.8346 48.3314C51.0821 48.579 51.2509 48.8945 51.3193 49.2378C51.3873 49.5815 51.3525 49.9373 51.2186 50.2611C51.0842 50.5845 50.8574 50.8611 50.5663 51.0556C50.2753 51.25 49.9328 51.3541 49.5828 51.3541Z" fill="#FBAC05"/>
</svg>
