<svg width="118" height="116" viewBox="0 0 118 116" fill="none" xmlns="http://www.w3.org/2000/svg">
<path d="M75.3124 39.875H42.6875C41.6865 39.875 40.875 40.6857 40.875 41.6875V74.3124C40.875 75.3142 41.6865 76.1249 42.6875 76.1249H75.3124C76.3133 76.1249 77.1249 75.3142 77.1249 74.3124V41.6875C77.1249 40.6857 76.3133 39.875 75.3124 39.875ZM73.5 43.5V64.4994L69.3438 60.3437C68.6362 59.6356 67.4891 59.6356 66.781 60.3437L61.7189 65.4059L54.8438 58.5308C54.1362 57.8232 52.9891 57.8232 52.281 58.5308L44.5 66.3119V43.5H73.5ZM44.5 71.4379L53.5626 62.3756L63.687 72.5H44.5V71.4379ZM68.813 72.5L64.2816 67.9686L68.0626 64.1881L73.5 69.6254V72.5H68.813Z" fill="#FBAC05"/>
<path d="M62.6248 58C65.6232 58 68.0626 55.561 68.0626 52.5626C68.0626 49.5639 65.6232 47.1249 62.6248 47.1249C59.6265 47.1249 57.1875 49.5639 57.1875 52.5626C57.1875 55.561 59.6265 58 62.6248 58ZM62.6248 50.7502C63.624 50.7502 64.4373 51.5626 64.4373 52.5626C64.4373 53.5627 63.624 54.3751 62.6248 54.3751C61.6257 54.3751 60.8124 53.5627 60.8124 52.5626C60.8124 51.5626 61.6257 50.7502 62.6248 50.7502Z" fill="#FBAC05"/>
<path d="M93.7715 59.8124C94.5223 61.9177 96.5154 63.4373 98.8751 63.4373C101.873 63.4373 104.312 60.9983 104.312 58C104.312 55.0017 101.873 52.5627 98.8751 52.5627C96.5154 52.5627 94.5219 54.0823 93.7715 56.1875H84.3751V48.9373H91.6249C92.1057 48.9373 92.5667 48.7463 92.9065 48.4065L94.5516 46.7614C95.5452 48.0744 97.1049 48.9373 98.8751 48.9373C101.873 48.9373 104.312 46.4983 104.312 43.5C104.312 40.5016 101.873 38.0625 98.8751 38.0625C96.1622 38.0625 93.9272 40.0645 93.5218 42.6651L90.8745 45.3124H84.3751V34.4375C84.3751 33.4357 83.5635 32.625 82.5627 32.625H71.6875V23.5625C71.6875 23.0811 71.4965 22.6209 71.1563 22.281L67.5314 18.656C66.8233 17.948 65.6767 17.948 64.9686 18.656C64.2605 19.364 64.2605 20.511 64.9686 21.219L68.0627 24.313V32.625H60.8124V14.5C60.8124 13.4982 60.0009 12.6875 59 12.6875C57.9991 12.6875 57.1875 13.4982 57.1875 14.5V32.625H49.9373V24.313L53.0314 21.219C53.7395 20.511 53.7395 19.364 53.0314 18.656C52.3233 17.948 51.1767 17.948 50.4686 18.656L46.8437 22.281C46.5035 22.6209 46.3124 23.0811 46.3124 23.5625V32.625H35.4375C34.4365 32.625 33.625 33.4357 33.625 34.4375V45.3124H27.1255L24.4781 42.6651C24.0727 40.0645 21.8376 38.0625 19.125 38.0625C16.1266 38.0625 13.6875 40.5016 13.6875 43.5C13.6875 46.4983 16.1266 48.9373 19.125 48.9373C20.895 48.9373 22.4549 48.0744 23.4484 46.7614L25.0935 48.4065C25.4333 48.7463 25.8944 48.9373 26.375 48.9373H33.625V56.1875H24.2285C23.4779 54.0823 21.4848 52.5627 19.125 52.5627C16.1266 52.5627 13.6875 55.0017 13.6875 58C13.6875 60.9983 16.1266 63.4373 19.125 63.4373C21.4848 63.4373 23.4779 61.9177 24.2285 59.8124H33.625V67.0627H26.375C25.8944 67.0627 25.4333 67.2537 25.0935 67.5935L23.4484 69.2386C22.4549 67.9255 20.895 67.0627 19.125 67.0627C16.1266 67.0627 13.6875 69.5017 13.6875 72.5C13.6875 75.4983 16.1266 77.9373 19.125 77.9373C21.8376 77.9373 24.0727 75.9356 24.4781 73.3348L27.1255 70.6875H33.625V81.5627C33.625 82.5644 34.4365 83.3751 35.4375 83.3751H46.3124V92.4727C46.3124 92.9544 46.5035 93.4145 46.8437 93.7543C46.8437 93.7543 50.4626 97.3736 50.4686 97.3792C51.1456 98.0566 52.3237 98.0873 53.0314 97.3792C53.7395 96.6715 53.7395 95.5245 53.0314 94.8164L49.9373 91.7224V83.3751H57.1875V101.546C57.1875 102.548 57.9991 103.359 59 103.359C60.0009 103.359 60.8124 102.548 60.8124 101.546V83.3751H68.0627V91.7224L64.9686 94.8164C64.2605 95.5245 64.2605 96.6711 64.9686 97.3792C65.6452 98.0562 66.8246 98.0864 67.5314 97.3792L71.1563 93.7543C71.4965 93.4145 71.6875 92.9544 71.6875 92.4727V83.3751H82.5627C83.5635 83.3751 84.3751 82.5644 84.3751 81.5627V70.6875H90.8745L93.5218 73.3348C93.9272 75.9356 96.1622 77.9373 98.8751 77.9373C101.873 77.9373 104.312 75.4983 104.312 72.5C104.312 69.5017 101.873 67.0627 98.8751 67.0627C97.1049 67.0627 95.5452 67.9255 94.5516 69.2386L92.9065 67.5935C92.5667 67.2537 92.1057 67.0627 91.6249 67.0627H84.3751V59.8124H93.7715ZM98.8751 56.1875C99.8742 56.1875 100.688 57 100.688 58C100.688 59 99.8742 59.8124 98.8751 59.8124C97.8759 59.8124 97.0627 59 97.0627 58C97.0627 57 97.8759 56.1875 98.8751 56.1875ZM98.8751 41.6875C99.8742 41.6875 100.688 42.4999 100.688 43.5C100.688 44.5 99.8742 45.3124 98.8751 45.3124C97.8759 45.3124 97.0627 44.5 97.0627 43.5C97.0627 42.4999 97.8759 41.6875 98.8751 41.6875ZM19.125 45.3124C18.1258 45.3124 17.3125 44.5 17.3125 43.5C17.3125 42.4999 18.1258 41.6875 19.125 41.6875C20.1242 41.6875 20.9375 42.4999 20.9375 43.5C20.9375 44.5 20.1242 45.3124 19.125 45.3124ZM19.125 59.8124C18.1258 59.8124 17.3125 59 17.3125 58C17.3125 57 18.1258 56.1875 19.125 56.1875C20.1242 56.1875 20.9375 57 20.9375 58C20.9375 59 20.1242 59.8124 19.125 59.8124ZM19.125 74.3124C18.1258 74.3124 17.3125 73.5 17.3125 72.5C17.3125 71.5 18.1258 70.6875 19.125 70.6875C20.1242 70.6875 20.9375 71.5 20.9375 72.5C20.9375 73.5 20.1242 74.3124 19.125 74.3124ZM98.8751 70.6875C99.8742 70.6875 100.688 71.5 100.688 72.5C100.688 73.5 99.8742 74.3124 98.8751 74.3124C97.8759 74.3124 97.0627 73.5 97.0627 72.5C97.0627 71.5 97.8759 70.6875 98.8751 70.6875ZM80.7502 79.7502H37.25V36.25H80.7502V79.7502Z" fill="#FBAC05"/>
</svg>
