<svg width="83" height="84" viewBox="0 0 83 84" fill="none" xmlns="http://www.w3.org/2000/svg">
<g clip-path="url(#clip0_15_212)">
<path d="M56.4172 25.1992C55.5207 25.1992 54.793 25.9251 54.793 26.8229C54.793 27.72 55.5207 28.4471 56.4172 28.4471C57.3157 28.4471 58.0415 27.72 58.0415 26.8229C58.0415 25.9251 57.3157 25.1992 56.4172 25.1992Z" fill="#FBAC05"/>
<path d="M26.9055 54.7109C26.0071 54.7109 25.2812 55.4387 25.2812 56.3352C25.2812 57.2336 26.0071 57.9595 26.9055 57.9595C27.802 57.9595 28.5298 57.2336 28.5298 56.3352C28.5298 55.4387 27.802 54.7109 26.9055 54.7109Z" fill="#FBAC05"/>
<path d="M81.2236 9.99256C80.6755 9.86503 80.0993 10.0306 79.7034 10.4304L72.9697 17.2174H69.7415L66.1878 13.5355V10.2622L72.825 3.52595C73.2178 3.1275 73.3777 2.55457 73.2476 2.00955C73.1182 1.46517 72.7172 1.02611 72.1868 0.847184C70.5194 0.285035 68.7745 0.000154097 66.9999 0.000154097C61.7096 0.000154097 56.9034 2.46701 53.8135 6.76814C50.9216 10.7945 50.0301 15.7289 51.3073 20.4513L39.343 32.4157L19.4102 12.4372V8.51613C19.4102 7.94573 19.1107 7.41658 18.6215 7.12345L7.1368 0.231739C6.49725 -0.152121 5.6794 -0.0512387 5.15279 0.476013L0.559159 5.06901C0.0325418 5.59626 -0.0683402 6.4141 0.314885 7.05366L7.20533 18.5384C7.49846 19.0275 8.02698 19.3264 8.59737 19.327L12.5172 19.3283L32.4519 39.3068L20.5332 51.2254C15.8108 49.9489 10.8739 50.8416 6.84558 53.7354C2.54698 56.8235 0.0820312 61.6284 0.0820312 66.9187C0.0820312 68.6927 0.366912 70.4381 0.929061 72.1049C1.10862 72.6385 1.55212 73.0414 2.10031 73.1683C2.64913 73.2958 3.22461 73.1302 3.62116 72.7305L10.3542 65.9441H13.6002L17.2986 69.6425V72.8885L10.5122 79.6216C10.1125 80.0181 9.94691 80.5936 10.0744 81.1424C10.2013 81.6906 10.6042 82.1341 11.1378 82.3137C12.8046 82.8758 14.5501 83.1607 16.3241 83.1607C21.6143 83.1607 26.4186 80.6951 29.5073 76.3965C32.4011 72.3682 33.2938 67.4319 32.0173 62.7095L41.5896 53.1371L43.7824 55.519L42.7761 56.5246C42.1416 57.1591 42.1416 58.1876 42.7761 58.8221C43.4106 59.4559 44.4385 59.4559 45.0736 58.8221L45.9847 57.911L66.5583 80.2586C66.5735 80.2751 66.5894 80.2909 66.6052 80.3068C70.4121 84.1137 76.5799 84.1149 80.3887 80.3062C84.1867 76.5063 84.1867 70.3233 80.3887 66.5234C80.3722 66.5069 80.355 66.491 80.3379 66.4752L57.9554 45.9409L58.8564 45.0399C59.4908 44.4061 59.4908 43.3776 58.8564 42.7431C58.2219 42.1086 57.194 42.1086 56.5589 42.7431L55.5596 43.743L53.1733 41.5528L62.792 31.9341C64.1593 32.2996 65.5704 32.4848 66.9999 32.4848C75.9562 32.4848 83.2419 25.1985 83.2419 16.2428C83.2419 14.4682 82.957 12.7234 82.3949 11.056C82.2153 10.5224 81.7718 10.1195 81.2236 9.99256ZM14.3407 16.5569C14.0361 16.2517 13.6231 16.0963 13.1916 16.0963L9.518 16.095L3.75313 6.46994L6.55308 3.66998L16.1616 9.43613V13.1098C16.1616 13.5399 16.3323 13.9523 16.6362 14.2569L37.0461 34.7131L34.7487 37.0099L14.3407 16.5569ZM55.656 48.2402L78.1147 68.8437C80.6234 71.379 80.6158 75.4841 78.0912 78.01C75.5609 80.5403 71.4647 80.5479 68.9243 78.0322L48.2834 55.6116L55.656 48.2402ZM53.2603 46.0418L46.0811 53.2196L43.8884 50.8378L50.874 43.8515L53.2603 46.0418ZM66.9999 29.2363C65.5793 29.2363 64.1822 29.0085 62.8485 28.5593C62.2641 28.3633 61.6182 28.5143 61.1817 28.9502C53.0388 37.0931 35.4929 54.6383 29.032 61.0998C28.5955 61.5364 28.4439 62.1823 28.6412 62.7673C29.9914 66.7765 29.3455 71.0529 26.8685 74.5013C24.3984 77.9396 20.5548 79.9121 16.3241 79.9121C15.8488 79.9121 15.3761 79.8861 14.9079 79.836L20.0669 74.717C20.3739 74.4125 20.5472 73.9975 20.5472 73.5642V68.9693C20.5472 68.5385 20.3758 68.1254 20.0713 67.8209L15.4212 63.1708C15.1166 62.8662 14.7036 62.6949 14.2728 62.6949H9.67789C9.24454 62.6949 8.82959 62.8681 8.52441 63.1752L3.40607 68.3342C3.35531 67.8659 3.32993 67.3932 3.32993 66.918C3.32993 62.6867 5.30189 58.8436 8.74077 56.3736C12.1885 53.8966 16.4655 53.2501 20.4755 54.6009C21.0598 54.7982 21.7057 54.6466 22.1422 54.21C22.2317 54.1212 54.2691 22.0832 54.2919 22.0604C54.7284 21.6238 54.8794 20.9786 54.6828 20.3936C53.3319 16.3843 53.9766 12.1092 56.4517 8.66333C58.9236 5.22192 62.7679 3.24869 66.9993 3.24869C67.4891 3.24869 67.9757 3.27597 68.4579 3.32927L63.4062 8.45649C63.1067 8.76041 62.9392 9.16964 62.9392 9.59601V14.1909C62.9392 14.6122 63.1023 15.0164 63.3948 15.319L67.8825 19.9691C68.1883 20.2864 68.6102 20.4653 69.0512 20.4653H73.6461C74.0788 20.4653 74.4937 20.2927 74.7989 19.985L79.9173 14.8267C79.968 15.2949 79.9934 15.7676 79.9934 16.2428C79.9934 23.4074 74.1644 29.2363 66.9999 29.2363Z" fill="#FBAC05"/>
<path d="M50.6759 30.2688L30.3504 50.5944C29.7165 51.2282 29.7165 52.2567 30.3504 52.8912C30.9849 53.5257 32.0134 53.5257 32.6478 52.8912L52.9734 32.5656C53.6078 31.9318 53.6078 30.9033 52.9734 30.2688C52.3389 29.6343 51.3104 29.6343 50.6759 30.2688Z" fill="#FBAC05"/>
<path d="M71.2001 73.4188C71.8346 74.0513 72.8631 74.0513 73.4975 73.415C74.1307 72.7799 74.1288 71.7514 73.4937 71.1182L58.8531 56.5245C58.218 55.8913 57.1889 55.8932 56.5563 56.5283C55.9225 57.1641 55.9244 58.1919 56.5595 58.8251L71.2001 73.4188Z" fill="#FBAC05"/>
</g>
<defs>
<clipPath id="clip0_15_212">
<rect width="83" height="83.1624" fill="white"/>
</clipPath>
</defs>
</svg>
